HIERARCHY
ROOT Hips
{
	OFFSET 0.00000 0.00000 0.00000
	CHANNELS 6 Xposition Yposition Zposition Zrotation Yrotation Xrotation 
	JOINT LHipJoint
	{
		OFFSET 0 0 0
		CHANNELS 3 Zrotation Yrotation Xrotation
		JOINT LeftUpLeg
		{
			OFFSET 1.59801 -1.77853 0.57028
			CHANNELS 3 Zrotation Yrotation Xrotation
			JOINT LeftLeg
			{
				OFFSET 2.39439 -6.57854 0.00000
				CHANNELS 3 Zrotation Yrotation Xrotation
				JOINT LeftFoot
				{
					OFFSET 2.69334 -7.39989 0.00000
					CHANNELS 3 Zrotation Yrotation Xrotation
					JOINT LeftToeBase
					{
						OFFSET 0.09553 -0.26245 1.73747
						CHANNELS 3 Zrotation Yrotation Xrotation
						End Site
						{
							OFFSET 0.00000 -0.00000 0.89391
						}
					}
				}
			}
		}
	}
	JOINT RHipJoint
	{
		OFFSET 0 0 0
		CHANNELS 3 Zrotation Yrotation Xrotation
		JOINT RightUpLeg
		{
			OFFSET -1.54704 -1.77852 0.57028
			CHANNELS 3 Zrotation Yrotation Xrotation
			JOINT RightLeg
			{
				OFFSET -2.40286 -6.60180 0.00000
				CHANNELS 3 Zrotation Yrotation Xrotation
				JOINT RightFoot
				{
					OFFSET -2.63873 -7.24984 0.00000
					CHANNELS 3 Zrotation Yrotation Xrotation
					JOINT RightToeBase
					{
						OFFSET -0.15631 -0.42945 1.84436
						CHANNELS 3 Zrotation Yrotation Xrotation
						End Site
						{
							OFFSET -0.00000 -0.00000 0.95734
						}
					}
				}
			}
		}
	}
	JOINT LowerBack
	{
		OFFSET 0 0 0
		CHANNELS 3 Zrotation Yrotation Xrotation
		JOINT Spine
		{
			OFFSET -0.00436 1.89866 -0.04018
			CHANNELS 3 Zrotation Yrotation Xrotation
			JOINT Spine1
			{
				OFFSET 0.02031 1.88273 0.09634
				CHANNELS 3 Zrotation Yrotation Xrotation
				JOINT Neck
				{
					OFFSET 0 0 0
					CHANNELS 3 Zrotation Yrotation Xrotation
					JOINT Neck1
					{
						OFFSET -0.13105 1.89371 0.23083
						CHANNELS 3 Zrotation Yrotation Xrotation
						JOINT Head
						{
							OFFSET 0.17062 1.83990 -0.54062
							CHANNELS 3 Zrotation Yrotation Xrotation
							End Site
							{
								OFFSET 0.04576 1.94782 -0.21839
							}
						}
					}
				}
				JOINT LeftShoulder
				{
					OFFSET 0 0 0
					CHANNELS 3 Zrotation Yrotation Xrotation
					JOINT LeftArm
					{
						OFFSET 3.12424 1.09204 0.22226
						CHANNELS 3 Zrotation Yrotation Xrotation
						JOINT LeftForeArm
						{
							OFFSET 5.29277 -0.00000 0.00000
							CHANNELS 3 Zrotation Yrotation Xrotation
							JOINT LeftHand
							{
								OFFSET 2.85226 -0.00000 0.00000
								CHANNELS 3 Zrotation Yrotation Xrotation
								JOINT LeftFingerBase
								{
									OFFSET 0 0 0
									CHANNELS 3 Zrotation Yrotation Xrotation
									JOINT LeftHandIndex1
									{
										OFFSET 0.60210 -0.00000 0.00000
										CHANNELS 3 Zrotation Yrotation Xrotation
										End Site
										{
											OFFSET 0.48543 -0.00000 0.00000
										}
									}
								}
								JOINT LThumb
								{
									OFFSET 0 0 0
									CHANNELS 3 Zrotation Yrotation Xrotation
									End Site
									{
										OFFSET 0.49284 -0.00000 0.49284
									}
								}
							}
						}
					}
				}
				JOINT RightShoulder
				{
					OFFSET 0 0 0
					CHANNELS 3 Zrotation Yrotation Xrotation
					JOINT RightArm
					{
						OFFSET -2.91709 1.01504 0.30199
						CHANNELS 3 Zrotation Yrotation Xrotation
						JOINT RightForeArm
						{
							OFFSET -5.13304 -0.00000 0.00000
							CHANNELS 3 Zrotation Yrotation Xrotation
							JOINT RightHand
							{
								OFFSET -2.74305 -0.00000 0.00000
								CHANNELS 3 Zrotation Yrotation Xrotation
								JOINT RightFingerBase
								{
									OFFSET 0 0 0
									CHANNELS 3 Zrotation Yrotation Xrotation
									JOINT RightHandIndex1
									{
										OFFSET -0.76798 -0.00000 0.00000
										CHANNELS 3 Zrotation Yrotation Xrotation
										End Site
										{
											OFFSET -0.61916 -0.00000 0.00000
										}
									}
								}
								JOINT RThumb
								{
									OFFSET 0 0 0
									CHANNELS 3 Zrotation Yrotation Xrotation
									End Site
									{
										OFFSET -0.62862 -0.00000 0.62862
									}
								}
							}
						}
					}
				}
			}
		}
	}
}
MOTION
Frames: 5
Frame Time: .0083333
-0.1814 15.8462 -2.2009 -11.5230 -9.2896 5.2303 0.0000 0.0000 0.0000 0.4370 -10.7233 -33.2399 10.2738 17.5609 60.3995 2.4095 -3.2883 -28.5607 1.7034 -8.2188 -23.3807 0.0000 0.0000 0.0000 28.6988 14.6423 -28.5758 -6.9372 -15.2788 48.6364 -1.7487 10.1025 -23.7512 -0.8766 5.9689 -16.6943 -6.5862 -0.2044 21.2298 -6.4108 -1.7296 10.7682 -2.7812 -0.9848 -0.1106 -17.5438 -7.9816 -0.9242 26.0505 -12.4454 6.3724 10.6825 -6.0230 4.8857 0.0000 0.0000 0.0000 -101.1254 -36.5328 44.0063 158.7321 -32.1398 -113.8081 -0.0000 -0.0000 11.4632 -28.0085 36.6700 -17.6226 -7.1250 0.0000 -0.0000 -64.5617 55.3829 -23.2713 0.0000 0.0000 0.0000 91.0208 33.7228 48.9739 -157.6639 33.3548 -113.2303 0.0000 0.0000 25.9863 25.9177 6.7505 3.2693 7.1250 -0.0000 -0.0000 35.5386 -21.6384 25.1900
-0.1983 15.8235 -2.1980 -11.5778 -9.3594 4.9509 0.0000 0.0000 0.0000 0.5215 -10.6915 -33.0502 10.3880 17.6223 60.7773 2.4466 -3.3692 -28.7726 1.6770 -8.1581 -23.1954 0.0000 0.0000 0.0000 28.8807 14.2680 -28.5838 -7.0247 -15.3527 48.9678 -1.8000 10.4155 -24.1151 -0.9227 6.1200 -17.1329 -6.8599 -0.0677 21.2148 -6.4306 -1.5899 10.9251 -2.6825 -0.9319 0.0822 -17.8663 -8.1396 -0.8956 25.9359 -12.6170 6.1964 10.6748 -6.1241 4.8845 -0.0000 -0.0000 0.0000 -101.1766 -36.8788 44.2080 158.7090 -32.1664 -113.7959 -0.0000 -0.0000 11.5377 -28.1014 36.6055 -17.6622 -7.1250 0.0000 -0.0000 -64.5558 55.3260 -23.1671 -0.0000 -0.0000 0.0000 90.7709 33.8339 48.6775 -157.7205 33.2915 -113.2614 0.0000 0.0000 25.6346 26.2084 6.7541 3.3132 7.1250 -0.0000 -0.0000 35.6829 -21.5876 25.4102
-0.2125 15.8040 -2.1962 -11.5799 -9.3445 4.6366 0.0000 0.0000 0.0000 0.5353 -10.7312 -32.8117 10.4740 17.6679 61.0611 2.4768 -3.5044 -28.9298 1.6293 -8.0470 -22.8569 0.0000 0.0000 0.0000 28.9883 13.8161 -28.5168 -7.0908 -15.4078 49.2167 -1.8344 10.8133 -24.3709 -0.9182 6.1053 -17.0902 -7.1063 0.0658 21.2471 -6.4052 -1.4501 11.1063 -2.5505 -0.8797 0.2776 -18.2859 -8.2879 -0.8271 25.9429 -12.7852 5.9867 10.7322 -6.2271 4.8823 -0.0000 -0.0000 0.0000 -101.2323 -37.3134 44.4481 158.6776 -32.2027 -113.7792 -0.0000 -0.0000 11.6586 -28.0821 36.7243 -17.6949 -7.1250 0.0000 -0.0000 -64.6816 55.3980 -23.3744 -0.0000 -0.0000 0.0000 90.5575 33.9674 48.3100 -157.7284 33.2826 -113.2657 0.0000 0.0000 25.3225 26.4047 6.8957 3.4115 7.1250 -0.0000 -0.0000 35.7397 -21.4279 25.6513
-0.2239 15.7884 -2.1968 -11.4461 -9.2593 4.3998 0.0000 0.0000 0.0000 0.4054 -10.8701 -32.6694 10.5371 17.7010 61.2691 2.4987 -3.5069 -29.0622 1.6445 -8.0826 -22.9651 0.0000 0.0000 0.0000 28.9090 13.3712 -28.5218 -7.1369 -15.4461 49.3902 -1.8477 11.1902 -24.4891 -0.9493 6.2049 -17.3800 -7.4228 0.1831 21.2911 -6.4207 -1.3519 11.2036 -2.4131 -0.8468 0.3764 -18.4224 -8.3850 -0.5983 25.7826 -12.8835 5.7275 10.6892 -6.3030 4.7864 0.0000 0.0000 0.0000 -101.1459 -37.7141 44.4456 158.6581 -32.2253 -113.7687 -0.0000 -0.0000 11.7195 -28.5928 36.7114 -18.0470 -7.1250 0.0000 -0.0000 -65.0510 55.2807 -23.4023 0.0000 0.0000 0.0000 90.5305 33.9964 47.9774 -157.6467 33.3740 -113.2209 0.0000 0.0000 25.1909 26.5126 7.0446 3.5010 7.1250 -0.0000 -0.0000 35.7505 -21.2762 25.8308
-0.2404 15.7775 -2.1957 -11.7457 -9.1190 4.3181 0.0000 0.0000 0.0000 0.8142 -10.8810 -32.6641 10.5867 17.7268 61.4320 2.5003 -3.4854 -29.0765 1.7145 -8.2441 -23.4581 0.0000 0.0000 0.0000 29.3255 13.0325 -28.4762 -7.1499 -15.4569 49.4391 -1.8382 11.3136 -24.4382 -0.9619 6.2447 -17.4961 -7.4161 0.2758 21.2919 -6.2511 -1.2253 11.2109 -2.2593 -0.7891 0.3857 -18.4855 -8.4393 -0.3000 25.5539 -12.9457 5.5814 10.6179 -6.3610 4.6908 -0.0000 -0.0000 0.0000 -101.0331 -37.9121 44.2725 158.6755 -32.2051 -113.7780 -0.0000 -0.0000 11.7194 -28.9997 36.5865 -18.2827 -7.1250 0.0000 -0.0000 -65.2079 55.1225 -23.2194 -0.0000 -0.0000 0.0000 90.5471 33.8929 47.7935 -157.5390 33.4941 -113.1615 0.0000 0.0000 25.2024 26.6535 7.3125 3.6555 7.1250 -0.0000 -0.0000 35.7437 -21.0118 26.1134
